# xmcd
#
# Track frame offsets:
#	150
#	13830
#	30977
#	43080
#	58467
#	73780
#	86770
#	101992
#	115710
#	134232
#	149830
#	166367
#	180817
#	194200
#	209282
#	223142
#	235022
#	252212
#	266077
#	288220
#
# Disc length: 4057 seconds
# Revision: 3
# Processed by: cddbd v1.5.2PL0 Copyright (c) Steve Scherf et al.
# Submitted via: dBpowerAMP V12.0
#
DISCID=420fd714
DTITLE=Various Artist - Country Duets, Vol. 2 [Sony]
DYEAR=2000
DGENRE=Country
TTITLE0=Johnny Cash - It Ain't Me, Babe
TTITLE1=Kris Kristofferson - Help Me Make It Through the Night
TTITLE2=George Jones - Cryin' Time
TTITLE3=Dolly Parton - Rockin' Years
TTITLE4=Bobby Bare - No Memories Hangin' Round
TTITLE5=Hank Williams - I Told a Lie to My Heart
TTITLE6=Kinleys, The - Talk to Me
TTITLE7=Johnny Cash - Even Cowgirls Get the Blues
TTITLE8=Patty Lovelace - You Don't Seem to Miss Me
TTITLE9=Dolly Parton - Whenever Forever Comes
TTITLE10=Tammy Wynette - Sometimes When We Touch
TTITLE11=Momtgomery Gentry - Hillbilly Shoes
TTITLE12=Charly McClain - Paradise Tonight
TTITLE13=Ricky Van Shelton - Sweet Memories
TTITLE14=Kris Kristofferson - Lover Please
TTITLE15=Sweethearts Of The Rodeo - I Feel Fine
TTITLE16=Ricky Skaggs - Love Can't Ever Get Better Than This
TTITLE17=O´Kanes, The - Blue Love
TTITLE18=Ty Herndon and Stephanie Bentley - Heart Half Empty
TTITLE19=Tammy Wynette - Glass Houses
EXTD=
EXTT0=
EXTT1=
EXTT2=
EXTT3=
EXTT4=
EXTT5=
EXTT6=
EXTT7=
EXTT8=
EXTT9=
EXTT10=
EXTT11=
EXTT12=
EXTT13=
EXTT14=
EXTT15=
EXTT16=
EXTT17=
EXTT18=
EXTT19=
PLAYORDER=
